<svg xmlns="http://www.w3.org/2000/svg" width="712" height="1080.001" viewBox="0 0 712 1080.001">
  <g id="Group_163185" data-name="Group 163185" transform="translate(-1208 0.001)">
    <path id="Subtraction_3" data-name="Subtraction 3" d="M-6664.6,11163h-6.4a83.45,83.45,0,0,1-32.7-6.6,83.918,83.918,0,0,1-14.268-7.744,84.573,84.573,0,0,1-12.432-10.257,84.72,84.72,0,0,1-10.257-12.432,83.952,83.952,0,0,1-7.745-14.27,83.468,83.468,0,0,1-6.6-32.7v-912a83.47,83.47,0,0,1,6.6-32.7,83.952,83.952,0,0,1,7.745-14.27,84.655,84.655,0,0,1,10.257-12.433,84.562,84.562,0,0,1,12.432-10.257,83.985,83.985,0,0,1,14.268-7.745,83.45,83.45,0,0,1,32.7-6.6h6.4a84.217,84.217,0,0,0-83.4,84v912a84.213,84.213,0,0,0,83.4,84Z" transform="translate(7963 -10083)" fill="#642c6a"/>
    <path id="Rectangle_148747" data-name="Rectangle 148747" d="M84,0H705a0,0,0,0,1,0,0V1080a0,0,0,0,1,0,0H84A84,84,0,0,1,0,996V84A84,84,0,0,1,84,0Z" transform="translate(1215)"/>
  </g>
</svg>
